<svg
            className="absolute w-full h-full scale-x-125 rotate-180 top-1/2 left-1/2 -translate-x-1/2 -translate-y-1/2 z-30 group-hover:animate-none animate-pulse group-hover:-translate-y-[45%] transition-all duration-300"
            viewBox="0 0 2400 800"
            xmlns="http://www.w3.org/2000/svg"
            version="1.1"
          >
            <defs>
              <linearGradient id="sssurf-grad" y2="100%" x2="50%" y1="0%" x1="50%">
                <stop
                  offset="0%"
                  stopOpacity="1"
                  stopColor="hsl(37, 99%, 67%)"
                ></stop>
                <stop
                  offset="100%"
                  stopOpacity="1"
                  stopColor="hsl(316, 73%, 52%)"
                ></stop>
              </linearGradient>
            </defs>
            <g transform="matrix(1,0,0,1,0,-91.0877685546875)" fill="url(#sssurf-grad)">
              <path
                opacity="0.05"
                transform="matrix(1,0,0,1,0,35)"
                d="M 0 305.9828838196134 Q 227.6031525693441 450 600 302.17553022897005 Q 1010.7738828515054 450 1200 343.3024459932802 Q 1379.4406250195766 450 1800 320.38902780838214 Q 2153.573162029817 450 2400 314.38564046970816 L 2400 800 L 0 800 L 0 340.3112176762882 Z"
              ></path>
              <path
                opacity="0.21"
                transform="matrix(1,0,0,1,0,70)"
                d="M 0 305.9828838196134 Q 227.6031525693441 450 600 302.17553022897005 Q 1010.7738828515054 450 1200 343.3024459932802 Q 1379.4406250195766 450 1800 320.38902780838214 Q 2153.573162029817 450 2400 314.38564046970816 L 2400 800 L 0 800 L 0 340.3112176762882 Z"
              ></path>
              <path
                opacity="0.37"
                transform="matrix(1,0,0,1,0,105)"
                d="M 0 305.9828838196134 Q 227.6031525693441 450 600 302.17553022897005 Q 1010.7738828515054 450 1200 343.3024459932802 Q 1379.4406250195766 450 1800 320.38902780838214 Q 2153.573162029817 450 2400 314.38564046970816 L 2400 800 L 0 800 L 0 340.3112176762882 Z"
              ></path>
              <path
                opacity="0.53"
                transform="matrix(1,0,0,1,0,140)"
                d="M 0 305.9828838196134 Q 227.6031525693441 450 600 302.17553022897005 Q 1010.7738828515054 450 1200 343.3024459932802 Q 1379.4406250195766 450 1800 320.38902780838214 Q 2153.573162029817 450 2400 314.38564046970816 L 2400 800 L 0 800 L 0 340.3112176762882 Z"
              ></path>
              <path
                opacity="0.68"
                transform="matrix(1,0,0,1,0,175)"
                d="M 0 305.9828838196134 Q 227.6031525693441 450 600 302.17553022897005 Q 1010.7738828515054 450 1200 343.3024459932802 Q 1379.4406250195766 450 1800 320.38902780838214 Q 2153.573162029817 450 2400 314.38564046970816 L 2400 800 L 0 800 L 0 340.3112176762882 Z"
              ></path>
              <path
                opacity="0.84"
                transform="matrix(1,0,0,1,0,210)"
                d="M 0 305.9828838196134 Q 227.6031525693441 450 600 302.17553022897005 Q 1010.7738828515054 450 1200 343.3024459932802 Q 1379.4406250195766 450 1800 320.38902780838214 Q 2153.573162029817 450 2400 314.38564046970816 L 2400 800 L 0 800 L 0 340.3112176762882 Z"
              ></path>
              <path
                opacity="1"
                transform="matrix(1,0,0,1,0,245)"
                d="M 0 305.9828838196134 Q 227.6031525693441 450 600 302.17553022897005 Q 1010.7738828515054 450 1200 343.3024459932802 Q 1379.4406250195766 450 1800 320.38902780838214 Q 2153.573162029817 450 2400 314.38564046970816 L 2400 800 L 0 800 L 0 340.3112176762882 Z"
              ></path>
            </g>
          </svg>